<?xml version="1.0" encoding="UTF-8"?><svg id="_Слой_2" xmlns="http://www.w3.org/2000/svg" width="30" height="31" viewBox="0 0 30 31"><defs><style>.cls-1{fill:#fbbc05;}.cls-1,.cls-2,.cls-3,.cls-4{stroke-width:0px;}.cls-2{fill:#4285f4;}.cls-3{fill:#eb4335;}.cls-4{fill:#34a853;}</style></defs><g id="google"><g id="google-2"><path class="cls-2" d="M30,15.84c0-1.27-.1-2.2-.32-3.17h-14.37v5.75h8.44c-.17,1.43-1.09,3.58-3.13,5.03l-.03.19,4.54,3.56.31.03c2.89-2.7,4.56-6.68,4.56-11.4"/><path class="cls-4" d="M15.31,31c4.13,0,7.6-1.38,10.14-3.75l-4.83-3.79c-1.29.91-3.03,1.55-5.31,1.55-4.05,0-7.48-2.7-8.71-6.44l-.18.02-4.72,3.7-.06.17c2.52,5.06,7.69,8.54,13.67,8.54"/><path class="cls-1" d="M6.6,18.57c-.32-.96-.51-2-.51-3.07s.19-2.1.49-3.07v-.21s-4.79-3.76-4.79-3.76l-.16.08c-1.04,2.1-1.63,4.46-1.63,6.96s.6,4.86,1.63,6.96l4.97-3.89"/><path class="cls-3" d="M15.31,5.99c2.87,0,4.81,1.26,5.92,2.31l4.32-4.27C22.89,1.53,19.44,0,15.31,0,9.32,0,4.15,3.48,1.63,8.54l4.95,3.89c1.24-3.74,4.68-6.44,8.72-6.44"/></g></g></svg>