<?xml version="1.0" encoding="UTF-8"?><svg id="_Слой_2" xmlns="http://www.w3.org/2000/svg" width="50" height="50" viewBox="0 0 50 50"><defs><style>.cls-1{fill:#fff;}.cls-1,.cls-2{stroke-width:0px;}.cls-2{fill:#ff8a00;}</style></defs><g id="_Слой_1-2"><g id="logo"><circle class="cls-2" cx="25" cy="25" r="25"/><path class="cls-1" d="M32.97,29.98c-.78,1.42-1.92,2.53-3.41,3.32s-3.28,1.18-5.36,1.18h-6.34V15.52h6.34c2.08,0,3.86.39,5.36,1.17s2.63,1.88,3.41,3.29c.78,1.41,1.17,3.08,1.17,5s-.39,3.59-1.17,5.01ZM29.2,29.94c1.22-1.18,1.83-2.84,1.83-4.97s-.61-3.79-1.83-4.97c-1.22-1.18-2.96-1.77-5.24-1.77h-3.04v13.48h3.04c2.27,0,4.02-.59,5.24-1.77Z"/></g></g></svg>